<svg width="65" height="91" viewBox="0 0 65 91" fill="none" xmlns="http://www.w3.org/2000/svg">
<path d="M18.5008 0.117266H46.6708C46.8371 0.116686 47.001 0.157566 47.1475 0.236284C47.2941 0.315002 47.4186 0.429061 47.51 0.568071C47.6013 0.707082 47.6566 0.866688 47.6707 1.03243C47.6848 1.19817 47.6573 1.36484 47.5908 1.51729L43.0008 12.3372C42.9236 12.5196 42.794 12.6749 42.6284 12.7835C42.4629 12.8921 42.2688 12.949 42.0708 12.9472H23.3608C23.1667 12.9488 22.9764 12.8938 22.813 12.789C22.6497 12.6843 22.5204 12.5343 22.4408 12.3573L17.5808 1.53731C17.5098 1.38398 17.4788 1.21513 17.4908 1.04659C17.5027 0.878043 17.5571 0.715248 17.649 0.573443C17.7409 0.431637 17.8672 0.315447 18.0161 0.235674C18.1651 0.155901 18.3318 0.115152 18.5008 0.117266Z" fill="#3C006E"/>
<path d="M25.8525 35.9972C21.6037 36.9396 17.6175 38.8149 14.1825 41.4872L0.492503 11.3672C0.26964 10.89 0.172859 10.3637 0.211375 9.8385C0.249891 9.31328 0.422419 8.80672 0.712504 8.36719L5.54252 0.947144C5.70699 0.693421 5.93208 0.484756 6.19746 0.339844C6.46284 0.194932 6.76014 0.118383 7.06251 0.117188H9.17253C9.52506 0.11858 9.8696 0.222394 10.1643 0.415894C10.459 0.609393 10.6911 0.884215 10.8325 1.20715L25.8525 35.9972Z" fill="#3C006E"/>
<path d="M64.3172 11.3372L50.3172 41.3372C46.8629 38.6905 42.8684 36.8367 38.6172 35.9072L53.9972 1.20716C54.1386 0.884219 54.3707 0.609397 54.6654 0.415897C54.9601 0.222398 55.3047 0.118584 55.6572 0.117191H57.7672C58.0699 0.116566 58.3679 0.192328 58.6336 0.337406C58.8993 0.482484 59.1241 0.692147 59.2872 0.947147L64.1272 8.36719C64.4046 8.80691 64.5673 9.30917 64.6005 9.82801C64.6337 10.3468 64.5363 10.8657 64.3172 11.3372Z" fill="#3C006E"/>
<path d="M32.3016 39.7305C27.3175 39.7305 22.4453 41.2084 18.3012 43.9774C14.1571 46.7464 10.9272 50.6822 9.01983 55.2869C7.1125 59.8916 6.61343 64.9585 7.58578 69.8468C8.55813 74.7351 10.9582 79.2253 14.4825 82.7496C18.0068 86.2739 22.497 88.6739 27.3853 89.6462C32.2736 90.6186 37.3405 90.1196 41.9452 88.2123C46.5499 86.305 50.4856 83.075 53.2546 78.9309C56.0236 74.7868 57.5016 69.9146 57.5016 64.9305C57.5016 58.2471 54.8466 51.8374 50.1207 47.1115C45.3947 42.3855 38.985 39.7305 32.3016 39.7305ZM32.3016 84.4805C28.4349 84.4805 24.6552 83.3339 21.4402 81.1857C18.2252 79.0375 15.7194 75.9843 14.2397 72.412C12.76 68.8397 12.3729 64.9088 13.1272 61.1165C13.8816 57.3241 15.7435 53.8407 18.4777 51.1066C21.2118 48.3725 24.6952 46.5104 28.4876 45.7561C32.2799 45.0018 36.2107 45.389 39.783 46.8687C43.3553 48.3483 46.4086 50.8541 48.5568 54.0691C50.705 57.2841 51.8516 61.0639 51.8516 64.9305C51.8516 70.1155 49.7918 75.0881 46.1255 78.7544C42.4592 82.4207 37.4865 84.4805 32.3016 84.4805Z" fill="#F25910"/>
<path d="M32.3006 77.5895C39.2925 77.5895 44.9606 71.9215 44.9606 64.9296C44.9606 57.9376 39.2925 52.2695 32.3006 52.2695C25.3087 52.2695 19.6406 57.9376 19.6406 64.9296C19.6406 71.9215 25.3087 77.5895 32.3006 77.5895Z" fill="#F25910"/>
</svg>
