<svg width="46" height="78" viewBox="0 0 46 78" fill="none" xmlns="http://www.w3.org/2000/svg">
<path d="M43.0022 74.999C42.9882 75.2988 42.9146 75.5927 42.7857 75.8637C42.6569 76.1348 42.4753 76.3774 42.2516 76.5775C42.028 76.7776 41.7667 76.9312 41.4831 77.0293C41.1995 77.1273 40.8991 77.1679 40.5997 77.1486C40.3002 77.1294 40.0075 77.0506 39.7388 76.9171C39.4701 76.7835 39.2306 76.5977 39.0344 76.3706C38.8383 76.1435 38.6893 75.8797 38.5962 75.5944C38.5031 75.3091 38.4677 75.0081 38.4922 74.709L40.7522 39.709C40.8005 39.1184 41.0789 38.5704 41.5273 38.183C41.9757 37.7956 42.5584 37.5999 43.1497 37.638C43.7411 37.676 44.2938 37.9447 44.689 38.3863C45.0841 38.8279 45.2899 39.4071 45.2622 39.999L43.0022 74.999ZM6.8322 74.709C6.85992 75.3009 6.65405 75.88 6.25893 76.3216C5.86381 76.7632 5.31106 77.032 4.71971 77.07C4.12837 77.1081 3.54573 76.9123 3.09731 76.5249C2.64888 76.1376 2.37054 75.5896 2.32222 74.999L0.0622134 39.999C0.0377421 39.6999 0.0730909 39.3989 0.166187 39.1136C0.259283 38.8283 0.408271 38.5644 0.60445 38.3373C0.800628 38.1102 1.04006 37.9245 1.3088 37.7909C1.57753 37.6573 1.87018 37.5786 2.16967 37.5593C2.46915 37.5401 2.76946 37.5807 3.05309 37.6787C3.33672 37.7768 3.598 37.9303 3.82164 38.1305C4.04529 38.3306 4.22683 38.5732 4.3557 38.8442C4.48457 39.1152 4.55819 39.4092 4.57222 39.709L6.8322 74.709Z" fill="#3C006E"/>
<path d="M33.8624 29.6624L31.7024 75.0024C31.6767 75.5843 31.4272 76.1338 31.0062 76.5363C30.5851 76.9387 30.0249 77.163 29.4424 77.1624H15.8824C15.3017 77.1604 14.744 76.935 14.3251 76.5328C13.9062 76.1306 13.6581 75.5826 13.6324 75.0024L11.4724 29.6924H2.32244C1.89475 29.6924 1.47583 29.571 1.11437 29.3424C0.752917 29.1138 0.463748 28.7873 0.280479 28.4009C0.0972101 28.0144 0.0273854 27.5839 0.0790631 27.1594C0.130741 26.7348 0.301822 26.3336 0.572441 26.0024L20.9124 1.14246C21.1244 0.883076 21.3914 0.674053 21.694 0.530518C21.9967 0.386983 22.3275 0.3125 22.6624 0.3125C22.9974 0.3125 23.3282 0.386983 23.6309 0.530518C23.9335 0.674053 24.2005 0.883076 24.4124 1.14246L44.7524 26.0024C45.0231 26.3336 45.1941 26.7348 45.2458 27.1594C45.2975 27.5839 45.2276 28.0144 45.0444 28.4009C44.8611 28.7873 44.572 29.1138 44.2105 29.3424C43.849 29.571 43.4301 29.6924 43.0024 29.6924L33.8624 29.6624Z" fill="#F25910"/>
</svg>
